<?xml version="1.0" encoding="UTF-8" ?>
<svg version="1.1" width="10080" height="8000" xmlns="http://www.w3.org/2000/svg" shape-rendering="crispEdges">
<rect x="0" y="0" width="4304" height="256" fill="#C0C0C0" />
<rect x="4304" y="0" width="1504" height="256" fill="#000000" />
<rect x="5808" y="0" width="4272" height="256" fill="#C0C0C0" />
<rect x="0" y="256" width="3808" height="240" fill="#C0C0C0" />
<rect x="3808" y="256" width="496" height="240" fill="#000000" />
<rect x="4304" y="256" width="1504" height="752" fill="#F2F2F2" />
<rect x="5808" y="256" width="496" height="240" fill="#000000" />
<rect x="6304" y="256" width="3776" height="240" fill="#C0C0C0" />
<rect x="0" y="496" width="3552" height="512" fill="#C0C0C0" />
<rect x="3552" y="496" width="256" height="512" fill="#000000" />
<rect x="3808" y="496" width="496" height="512" fill="#F2F2F2" />
<rect x="5808" y="496" width="496" height="512" fill="#F2F2F2" />
<rect x="6304" y="496" width="256" height="512" fill="#000000" />
<rect x="6560" y="496" width="3520" height="512" fill="#C0C0C0" />
<rect x="0" y="1008" width="3312" height="240" fill="#C0C0C0" />
<rect x="3312" y="1008" width="240" height="240" fill="#000000" />
<rect x="3552" y="1008" width="256" height="240" fill="#F2F2F2" />
<rect x="3808" y="1008" width="752" height="240" fill="#000000" />
<rect x="4560" y="1008" width="992" height="240" fill="#F2F2F2" />
<rect x="5552" y="1008" width="752" height="240" fill="#000000" />
<rect x="6304" y="1008" width="256" height="240" fill="#F2F2F2" />
<rect x="6560" y="1008" width="240" height="240" fill="#000000" />
<rect x="6800" y="1008" width="3280" height="240" fill="#C0C0C0" />
<rect x="0" y="1248" width="3056" height="496" fill="#C0C0C0" />
<rect x="3056" y="1248" width="256" height="496" fill="#000000" />
<rect x="3312" y="1248" width="240" height="3008" fill="#F2F2F2" />
<rect x="3552" y="1248" width="256" height="752" fill="#000000" />
<rect x="3808" y="1248" width="752" height="256" fill="#FFFFFF" />
<rect x="4560" y="1248" width="240" height="752" fill="#000000" />
<rect x="4800" y="1248" width="512" height="1760" fill="#F2F2F2" />
<rect x="5312" y="1248" width="240" height="752" fill="#000000" />
<rect x="5552" y="1248" width="752" height="256" fill="#FFFFFF" />
<rect x="6304" y="1248" width="256" height="752" fill="#000000" />
<rect x="6560" y="1248" width="240" height="3008" fill="#F2F2F2" />
<rect x="6800" y="1248" width="256" height="496" fill="#000000" />
<rect x="7056" y="1248" width="3024" height="496" fill="#C0C0C0" />
<rect x="3808" y="1504" width="256" height="496" fill="#FFFFFF" />
<rect x="4064" y="1504" width="240" height="240" fill="#000000" />
<rect x="4304" y="1504" width="256" height="496" fill="#FFFFFF" />
<rect x="5552" y="1504" width="256" height="496" fill="#FFFFFF" />
<rect x="5808" y="1504" width="256" height="240" fill="#000000" />
<rect x="6064" y="1504" width="240" height="496" fill="#FFFFFF" />
<rect x="0" y="1744" width="2800" height="240" fill="#C0C0C0" />
<rect x="2800" y="1744" width="256" height="512" fill="#000000" />
<rect x="3056" y="1744" width="256" height="2512" fill="#F2F2F2" />
<rect x="4064" y="1744" width="240" height="256" fill="#FFFFFF" />
<rect x="5808" y="1744" width="256" height="256" fill="#FFFFFF" />
<rect x="6800" y="1744" width="256" height="2512" fill="#F2F2F2" />
<rect x="7056" y="1744" width="256" height="512" fill="#000000" />
<rect x="7312" y="1744" width="2768" height="240" fill="#C0C0C0" />
<rect x="0" y="1984" width="2800" height="272" fill="#DEDEDE" />
<rect x="7312" y="1984" width="2768" height="272" fill="#DEDEDE" />
<rect x="3552" y="2000" width="256" height="2496" fill="#F2F2F2" />
<rect x="3808" y="2000" width="752" height="256" fill="#000000" />
<rect x="4560" y="2000" width="240" height="1008" fill="#F2F2F2" />
<rect x="5312" y="2000" width="240" height="1008" fill="#F2F2F2" />
<rect x="5552" y="2000" width="752" height="256" fill="#000000" />
<rect x="6304" y="2000" width="256" height="2496" fill="#F2F2F2" />
<rect x="0" y="2256" width="2560" height="240" fill="#DEDEDE" />
<rect x="2560" y="2256" width="240" height="2000" fill="#000000" />
<rect x="2800" y="2256" width="256" height="2000" fill="#F2F2F2" />
<rect x="3808" y="2256" width="752" height="752" fill="#F2F2F2" />
<rect x="5552" y="2256" width="752" height="752" fill="#F2F2F2" />
<rect x="7056" y="2256" width="256" height="2000" fill="#F2F2F2" />
<rect x="7312" y="2256" width="240" height="2000" fill="#000000" />
<rect x="7552" y="2256" width="2528" height="240" fill="#DEDEDE" />
<rect x="0" y="2496" width="2304" height="256" fill="#DEDEDE" />
<rect x="2304" y="2496" width="256" height="256" fill="#000000" />
<rect x="7552" y="2496" width="256" height="256" fill="#000000" />
<rect x="7808" y="2496" width="2272" height="256" fill="#DEDEDE" />
<rect x="0" y="2752" width="2064" height="256" fill="#DEDEDE" />
<rect x="2064" y="2752" width="240" height="256" fill="#000000" />
<rect x="2304" y="2752" width="256" height="1520" fill="#DEDEDE" />
<rect x="7552" y="2752" width="256" height="1520" fill="#DEDEDE" />
<rect x="7808" y="2752" width="256" height="256" fill="#000000" />
<rect x="8064" y="2752" width="2016" height="256" fill="#DEDEDE" />
<rect x="0" y="3008" width="1808" height="240" fill="#DEDEDE" />
<rect x="1808" y="3008" width="256" height="240" fill="#000000" />
<rect x="2064" y="3008" width="240" height="1248" fill="#DEDEDE" />
<rect x="3808" y="3008" width="496" height="1488" fill="#F2F2F2" />
<rect x="4304" y="3008" width="1504" height="240" fill="#000000" />
<rect x="5808" y="3008" width="496" height="1488" fill="#F2F2F2" />
<rect x="7808" y="3008" width="256" height="1248" fill="#DEDEDE" />
<rect x="8064" y="3008" width="240" height="240" fill="#000000" />
<rect x="8304" y="3008" width="1776" height="240" fill="#DEDEDE" />
<rect x="0" y="3248" width="1552" height="256" fill="#DEDEDE" />
<rect x="1552" y="3248" width="256" height="256" fill="#000000" />
<rect x="1808" y="3248" width="256" height="752" fill="#DEDEDE" />
<rect x="4304" y="3248" width="1504" height="1504" fill="#F2F2F2" />
<rect x="8064" y="3248" width="240" height="752" fill="#DEDEDE" />
<rect x="8304" y="3248" width="256" height="256" fill="#000000" />
<rect x="8560" y="3248" width="1520" height="256" fill="#DEDEDE" />
<rect x="0" y="3504" width="1312" height="768" fill="#DEDEDE" />
<rect x="1312" y="3504" width="240" height="240" fill="#000000" />
<rect x="1552" y="3504" width="256" height="240" fill="#DEDEDE" />
<rect x="8304" y="3504" width="256" height="240" fill="#DEDEDE" />
<rect x="8560" y="3504" width="240" height="240" fill="#000000" />
<rect x="8800" y="3504" width="1280" height="768" fill="#DEDEDE" />
<rect x="1312" y="3744" width="240" height="528" fill="#DEDEDE" />
<rect x="1552" y="3744" width="256" height="256" fill="#000000" />
<rect x="8304" y="3744" width="256" height="256" fill="#000000" />
<rect x="8560" y="3744" width="240" height="528" fill="#DEDEDE" />
<rect x="1552" y="4000" width="256" height="272" fill="#DEDEDE" />
<rect x="1808" y="4000" width="256" height="256" fill="#000000" />
<rect x="8064" y="4000" width="240" height="256" fill="#000000" />
<rect x="8304" y="4000" width="256" height="272" fill="#DEDEDE" />
<rect x="1808" y="4256" width="256" height="16" fill="#DEDEDE" />
<rect x="2064" y="4256" width="240" height="240" fill="#000000" />
<rect x="2560" y="4256" width="240" height="16" fill="#DEDEDE" />
<rect x="2800" y="4256" width="752" height="240" fill="#000000" />
<rect x="6560" y="4256" width="752" height="240" fill="#000000" />
<rect x="7312" y="4256" width="240" height="16" fill="#DEDEDE" />
<rect x="7808" y="4256" width="256" height="240" fill="#000000" />
<rect x="8064" y="4256" width="240" height="16" fill="#DEDEDE" />
<rect x="0" y="4272" width="2064" height="2480" fill="#CFCFCF" />
<rect x="2304" y="4272" width="496" height="224" fill="#CFCFCF" />
<rect x="7312" y="4272" width="496" height="224" fill="#CFCFCF" />
<rect x="8064" y="4272" width="2016" height="2480" fill="#CFCFCF" />
<rect x="2064" y="4496" width="240" height="2256" fill="#CFCFCF" />
<rect x="2304" y="4496" width="752" height="256" fill="#000000" />
<rect x="3056" y="4496" width="496" height="256" fill="#FFFFFF" />
<rect x="3552" y="4496" width="752" height="256" fill="#000000" />
<rect x="5808" y="4496" width="752" height="256" fill="#000000" />
<rect x="6560" y="4496" width="496" height="256" fill="#FFFFFF" />
<rect x="7056" y="4496" width="752" height="256" fill="#000000" />
<rect x="7808" y="4496" width="256" height="2256" fill="#CFCFCF" />
<rect x="2304" y="4752" width="752" height="2000" fill="#CFCFCF" />
<rect x="3056" y="4752" width="256" height="496" fill="#000000" />
<rect x="3312" y="4752" width="992" height="496" fill="#FFFFFF" />
<rect x="4304" y="4752" width="1504" height="256" fill="#000000" />
<rect x="5808" y="4752" width="992" height="496" fill="#FFFFFF" />
<rect x="6800" y="4752" width="256" height="496" fill="#000000" />
<rect x="7056" y="4752" width="752" height="2000" fill="#CFCFCF" />
<rect x="4304" y="5008" width="1504" height="1248" fill="#FFFFFF" />
<rect x="3056" y="5248" width="256" height="1504" fill="#CFCFCF" />
<rect x="3312" y="5248" width="240" height="496" fill="#000000" />
<rect x="3552" y="5248" width="752" height="496" fill="#FFFFFF" />
<rect x="5808" y="5248" width="752" height="496" fill="#FFFFFF" />
<rect x="6560" y="5248" width="240" height="496" fill="#000000" />
<rect x="6800" y="5248" width="256" height="1504" fill="#CFCFCF" />
<rect x="3312" y="5744" width="240" height="1008" fill="#CFCFCF" />
<rect x="3552" y="5744" width="256" height="256" fill="#000000" />
<rect x="3808" y="5744" width="496" height="256" fill="#FFFFFF" />
<rect x="5808" y="5744" width="496" height="256" fill="#FFFFFF" />
<rect x="6304" y="5744" width="256" height="256" fill="#000000" />
<rect x="6560" y="5744" width="240" height="1008" fill="#CFCFCF" />
<rect x="3552" y="6000" width="256" height="752" fill="#CFCFCF" />
<rect x="3808" y="6000" width="496" height="256" fill="#000000" />
<rect x="5808" y="6000" width="496" height="256" fill="#000000" />
<rect x="6304" y="6000" width="256" height="752" fill="#CFCFCF" />
<rect x="3808" y="6256" width="496" height="496" fill="#CFCFCF" />
<rect x="4304" y="6256" width="1504" height="240" fill="#000000" />
<rect x="5808" y="6256" width="496" height="496" fill="#CFCFCF" />
<rect x="4304" y="6496" width="256" height="1504" fill="#000000" />
<rect x="4560" y="6496" width="992" height="256" fill="#CFCFCF" />
<rect x="5552" y="6496" width="256" height="1504" fill="#000000" />
<rect x="0" y="6752" width="4304" height="992" fill="#C0C0C0" />
<rect x="4560" y="6752" width="992" height="1248" fill="#C0C0C0" />
<rect x="5808" y="6752" width="4272" height="992" fill="#C0C0C0" />
<rect x="0" y="7744" width="3552" height="256" fill="#C0C0C0" />
<rect x="3552" y="7744" width="752" height="256" fill="#000000" />
<rect x="5808" y="7744" width="752" height="256" fill="#000000" />
<rect x="6560" y="7744" width="3520" height="256" fill="#C0C0C0" />
</svg>