<?xml version="1.0" encoding="UTF-8" ?>
<svg version="1.1" width="32" height="32" xmlns="http://www.w3.org/2000/svg" shape-rendering="crispEdges">
<rect x="13" y="0" width="6" height="1" fill="#000000" />
<rect x="11" y="1" width="2" height="1" fill="#000000" />
<rect x="13" y="1" width="6" height="3" fill="#F2F2F2" />
<rect x="19" y="1" width="2" height="1" fill="#000000" />
<rect x="10" y="2" width="1" height="2" fill="#000000" />
<rect x="11" y="2" width="2" height="2" fill="#F2F2F2" />
<rect x="19" y="2" width="2" height="2" fill="#F2F2F2" />
<rect x="21" y="2" width="1" height="2" fill="#000000" />
<rect x="9" y="4" width="1" height="1" fill="#000000" />
<rect x="10" y="4" width="1" height="1" fill="#F2F2F2" />
<rect x="11" y="4" width="3" height="1" fill="#000000" />
<rect x="14" y="4" width="4" height="1" fill="#F2F2F2" />
<rect x="18" y="4" width="3" height="1" fill="#000000" />
<rect x="21" y="4" width="1" height="1" fill="#F2F2F2" />
<rect x="22" y="4" width="1" height="1" fill="#000000" />
<rect x="8" y="5" width="1" height="2" fill="#000000" />
<rect x="9" y="5" width="1" height="12" fill="#F2F2F2" />
<rect x="10" y="5" width="1" height="3" fill="#000000" />
<rect x="11" y="5" width="3" height="1" fill="#FFFFFF" />
<rect x="14" y="5" width="1" height="3" fill="#000000" />
<rect x="15" y="5" width="2" height="7" fill="#F2F2F2" />
<rect x="17" y="5" width="1" height="3" fill="#000000" />
<rect x="18" y="5" width="3" height="1" fill="#FFFFFF" />
<rect x="21" y="5" width="1" height="3" fill="#000000" />
<rect x="22" y="5" width="1" height="12" fill="#F2F2F2" />
<rect x="23" y="5" width="1" height="2" fill="#000000" />
<rect x="11" y="6" width="1" height="2" fill="#FFFFFF" />
<rect x="12" y="6" width="1" height="1" fill="#000000" />
<rect x="13" y="6" width="1" height="2" fill="#FFFFFF" />
<rect x="18" y="6" width="1" height="2" fill="#FFFFFF" />
<rect x="19" y="6" width="1" height="1" fill="#000000" />
<rect x="20" y="6" width="1" height="2" fill="#FFFFFF" />
<rect x="7" y="7" width="1" height="2" fill="#000000" />
<rect x="8" y="7" width="1" height="10" fill="#F2F2F2" />
<rect x="12" y="7" width="1" height="1" fill="#FFFFFF" />
<rect x="19" y="7" width="1" height="1" fill="#FFFFFF" />
<rect x="23" y="7" width="1" height="10" fill="#F2F2F2" />
<rect x="24" y="7" width="1" height="2" fill="#000000" />
<rect x="10" y="8" width="1" height="10" fill="#F2F2F2" />
<rect x="11" y="8" width="3" height="1" fill="#000000" />
<rect x="14" y="8" width="1" height="4" fill="#F2F2F2" />
<rect x="17" y="8" width="1" height="4" fill="#F2F2F2" />
<rect x="18" y="8" width="3" height="1" fill="#000000" />
<rect x="21" y="8" width="1" height="10" fill="#F2F2F2" />
<rect x="6" y="9" width="1" height="8" fill="#000000" />
<rect x="7" y="9" width="1" height="8" fill="#F2F2F2" />
<rect x="11" y="9" width="3" height="3" fill="#F2F2F2" />
<rect x="18" y="9" width="3" height="3" fill="#F2F2F2" />
<rect x="24" y="9" width="1" height="8" fill="#F2F2F2" />
<rect x="25" y="9" width="1" height="8" fill="#000000" />
<rect x="5" y="10" width="1" height="1" fill="#000000" />
<rect x="26" y="10" width="1" height="1" fill="#000000" />
<rect x="4" y="11" width="1" height="1" fill="#000000" />
<rect x="27" y="11" width="1" height="1" fill="#000000" />
<rect x="3" y="12" width="1" height="1" fill="#000000" />
<rect x="11" y="12" width="2" height="6" fill="#F2F2F2" />
<rect x="13" y="12" width="6" height="1" fill="#000000" />
<rect x="19" y="12" width="2" height="6" fill="#F2F2F2" />
<rect x="28" y="12" width="1" height="1" fill="#000000" />
<rect x="2" y="13" width="1" height="1" fill="#000000" />
<rect x="13" y="13" width="6" height="6" fill="#F2F2F2" />
<rect x="29" y="13" width="1" height="1" fill="#000000" />
<rect x="1" y="14" width="1" height="1" fill="#000000" />
<rect x="30" y="14" width="1" height="1" fill="#000000" />
<rect x="2" y="15" width="1" height="1" fill="#000000" />
<rect x="29" y="15" width="1" height="1" fill="#000000" />
<rect x="3" y="16" width="1" height="1" fill="#000000" />
<rect x="28" y="16" width="1" height="1" fill="#000000" />
<rect x="4" y="17" width="1" height="1" fill="#000000" />
<rect x="7" y="17" width="3" height="1" fill="#000000" />
<rect x="22" y="17" width="3" height="1" fill="#000000" />
<rect x="27" y="17" width="1" height="1" fill="#000000" />
<rect x="5" y="18" width="3" height="1" fill="#000000" />
<rect x="8" y="18" width="2" height="1" fill="#FFFFFF" />
<rect x="10" y="18" width="3" height="1" fill="#000000" />
<rect x="19" y="18" width="3" height="1" fill="#000000" />
<rect x="22" y="18" width="2" height="1" fill="#FFFFFF" />
<rect x="24" y="18" width="3" height="1" fill="#000000" />
<rect x="8" y="19" width="1" height="2" fill="#000000" />
<rect x="9" y="19" width="4" height="2" fill="#FFFFFF" />
<rect x="13" y="19" width="6" height="1" fill="#000000" />
<rect x="19" y="19" width="4" height="2" fill="#FFFFFF" />
<rect x="23" y="19" width="1" height="2" fill="#000000" />
<rect x="13" y="20" width="6" height="5" fill="#FFFFFF" />
<rect x="9" y="21" width="1" height="2" fill="#000000" />
<rect x="10" y="21" width="3" height="2" fill="#FFFFFF" />
<rect x="19" y="21" width="3" height="2" fill="#FFFFFF" />
<rect x="22" y="21" width="1" height="2" fill="#000000" />
<rect x="10" y="23" width="1" height="1" fill="#000000" />
<rect x="11" y="23" width="2" height="1" fill="#FFFFFF" />
<rect x="19" y="23" width="2" height="1" fill="#FFFFFF" />
<rect x="21" y="23" width="1" height="1" fill="#000000" />
<rect x="11" y="24" width="2" height="1" fill="#000000" />
<rect x="19" y="24" width="2" height="1" fill="#000000" />
<rect x="13" y="25" width="6" height="1" fill="#000000" />
<rect x="13" y="26" width="1" height="6" fill="#000000" />
<rect x="18" y="26" width="1" height="6" fill="#000000" />
<rect x="10" y="31" width="3" height="1" fill="#000000" />
<rect x="19" y="31" width="3" height="1" fill="#000000" />
</svg>